<svg width="41" height="41" viewBox="0 0 41 41" fill="none" xmlns="http://www.w3.org/2000/svg">
<g clip-path="url(#clip0_2_2)">
<path d="M39.5 20.5C39.5 10.0066 30.9934 1.5 20.5 1.5C10.0066 1.5 1.5 10.0066 1.5 20.5C1.5 30.9934 10.0066 39.5 20.5 39.5C30.9934 39.5 39.5 30.9934 39.5 20.5Z" stroke="#03C9D7" stroke-width="2"/>
<path d="M27.5 20.5003C27.5004 20.6701 27.4569 20.8371 27.3736 20.985C27.2904 21.133 27.1703 21.2569 27.025 21.3447L18.02 26.8534C17.8682 26.9464 17.6943 26.9972 17.5163 27.0005C17.3383 27.0037 17.1627 26.9595 17.0075 26.8722C16.8538 26.7863 16.7258 26.6609 16.6366 26.5091C16.5474 26.3573 16.5003 26.1845 16.5 26.0084V14.9922C16.5003 14.8161 16.5474 14.6433 16.6366 14.4915C16.7258 14.3397 16.8538 14.2144 17.0075 14.1284C17.1627 14.0412 17.3383 13.9969 17.5163 14.0002C17.6943 14.0035 17.8682 14.0542 18.02 14.1472L27.025 19.6559C27.1703 19.7437 27.2904 19.8676 27.3736 20.0156C27.4569 20.1636 27.5004 20.3305 27.5 20.5003Z" fill="#03C9D7"/>
</g>
<defs>
<clipPath id="clip0_2_2">
<rect width="41" height="41" fill="white"/>
</clipPath>
</defs>
</svg>
