<svg width="360" height="219" viewBox="0 0 360 219" fill="none" xmlns="http://www.w3.org/2000/svg">
<rect width="360" height="219" rx="20" fill="white"/>
<path d="M39.36 69V65.568H30.912V63.696L38.976 52.2H41.736V63.48H44.136V65.568H41.736V69H39.36ZM33.528 63.48H39.48V54.84L33.528 63.48ZM51.8919 69.288C50.8039 69.288 49.8199 69.096 48.9399 68.712C48.0599 68.312 47.3559 67.72 46.8279 66.936C46.3159 66.136 46.0439 65.136 46.0119 63.936H48.3879C48.4039 64.544 48.5479 65.096 48.8199 65.592C49.1079 66.088 49.5079 66.488 50.0199 66.792C50.5319 67.08 51.1559 67.224 51.8919 67.224C52.5959 67.224 53.1879 67.088 53.6679 66.816C54.1639 66.544 54.5399 66.176 54.7959 65.712C55.0519 65.248 55.1799 64.728 55.1799 64.152C55.1799 63.432 55.0039 62.848 54.6519 62.4C54.3159 61.936 53.8519 61.592 53.2599 61.368C52.6679 61.128 52.0199 61.008 51.3159 61.008H50.0679V59.016H51.3159C52.3079 59.016 53.0919 58.784 53.6679 58.32C54.2599 57.856 54.5559 57.208 54.5559 56.376C54.5559 55.672 54.3239 55.096 53.8599 54.648C53.4119 54.2 52.7479 53.976 51.8679 53.976C51.0039 53.976 50.3159 54.232 49.8039 54.744C49.2919 55.256 48.9959 55.904 48.9159 56.688H46.5399C46.5879 55.744 46.8359 54.912 47.2839 54.192C47.7319 53.456 48.3479 52.896 49.1319 52.512C49.9319 52.112 50.8519 51.912 51.8919 51.912C52.9959 51.912 53.9239 52.112 54.6759 52.512C55.4279 52.896 55.9959 53.416 56.3799 54.072C56.7639 54.728 56.9559 55.44 56.9559 56.208C56.9559 56.8 56.8439 57.352 56.6199 57.864C56.4119 58.36 56.0999 58.792 55.6839 59.16C55.2839 59.528 54.7879 59.784 54.1959 59.928C54.8519 60.056 55.4279 60.312 55.9239 60.696C56.4359 61.064 56.8359 61.544 57.1239 62.136C57.4119 62.728 57.5559 63.408 57.5559 64.176C57.5559 65.088 57.3399 65.936 56.9079 66.72C56.4759 67.488 55.8359 68.112 54.9879 68.592C54.1559 69.056 53.1239 69.288 51.8919 69.288ZM59.1836 71.952L60.5756 66.408H62.9756L60.8156 71.952H59.1836ZM65.166 69V67.272C66.254 66.408 67.294 65.536 68.286 64.656C69.294 63.776 70.19 62.904 70.974 62.04C71.758 61.16 72.374 60.304 72.822 59.472C73.27 58.624 73.494 57.816 73.494 57.048C73.494 56.504 73.398 56 73.206 55.536C73.03 55.072 72.734 54.696 72.318 54.408C71.902 54.104 71.342 53.952 70.638 53.952C69.966 53.952 69.398 54.104 68.934 54.408C68.47 54.712 68.126 55.12 67.902 55.632C67.678 56.128 67.566 56.68 67.566 57.288H65.238C65.27 56.136 65.518 55.16 65.982 54.36C66.462 53.56 67.11 52.952 67.926 52.536C68.742 52.12 69.662 51.912 70.686 51.912C71.742 51.912 72.662 52.112 73.446 52.512C74.23 52.896 74.83 53.464 75.246 54.216C75.678 54.952 75.894 55.856 75.894 56.928C75.894 57.696 75.742 58.464 75.438 59.232C75.15 59.984 74.742 60.72 74.214 61.44C73.702 62.16 73.126 62.856 72.486 63.528C71.846 64.184 71.19 64.808 70.518 65.4C69.862 65.992 69.23 66.528 68.622 67.008H76.422V69H65.166ZM86.5163 69V65.568H78.0683V63.696L86.1323 52.2H88.8923V63.48H91.2923V65.568H88.8923V69H86.5163ZM80.6842 63.48H86.6363V54.84L80.6842 63.48ZM99.8642 69.288C98.6322 69.288 97.5922 69.056 96.7442 68.592C95.8962 68.128 95.2162 67.512 94.7042 66.744C94.1922 65.976 93.8162 65.112 93.5762 64.152C93.3522 63.192 93.2402 62.216 93.2402 61.224C93.2402 59.368 93.4962 57.744 94.0082 56.352C94.5362 54.96 95.2882 53.872 96.2642 53.088C97.2562 52.304 98.4402 51.912 99.8162 51.912C100.904 51.912 101.832 52.128 102.6 52.56C103.384 52.992 104 53.56 104.448 54.264C104.896 54.968 105.16 55.752 105.24 56.616H103.008C102.864 55.768 102.512 55.112 101.952 54.648C101.392 54.184 100.672 53.952 99.7922 53.952C99.0082 53.952 98.3042 54.2 97.6802 54.696C97.0562 55.176 96.5602 55.912 96.1922 56.904C95.8242 57.88 95.6162 59.136 95.5682 60.672C95.5682 60.688 95.5682 60.712 95.5682 60.744C95.5682 60.76 95.5682 60.784 95.5682 60.816C95.8242 60.336 96.1762 59.904 96.6242 59.52C97.0722 59.12 97.6002 58.808 98.2082 58.584C98.8162 58.344 99.4882 58.224 100.224 58.224C101.168 58.224 102.056 58.448 102.888 58.896C103.72 59.328 104.392 59.952 104.904 60.768C105.432 61.584 105.696 62.536 105.696 63.624C105.696 64.6 105.456 65.52 104.976 66.384C104.512 67.248 103.84 67.952 102.96 68.496C102.08 69.024 101.048 69.288 99.8642 69.288ZM99.6962 67.2C100.4 67.2 101.024 67.048 101.568 66.744C102.112 66.44 102.536 66.032 102.84 65.52C103.16 64.992 103.32 64.392 103.32 63.72C103.32 63.032 103.16 62.432 102.84 61.92C102.536 61.392 102.112 60.984 101.568 60.696C101.024 60.408 100.4 60.264 99.6962 60.264C99.0082 60.264 98.3842 60.424 97.8242 60.744C97.2802 61.064 96.8482 61.488 96.5282 62.016C96.2082 62.528 96.0482 63.104 96.0482 63.744C96.0482 64.4 96.2082 64.992 96.5282 65.52C96.8482 66.032 97.2802 66.44 97.8242 66.744C98.3842 67.048 99.0082 67.2 99.6962 67.2Z" fill="#11142D"/>
<path d="M33.968 96V91.744L30.32 84.8H31.84L34.864 90.88H34.432L37.44 84.8H38.944L35.312 91.744V96H33.968ZM42.531 96.192C41.7843 96.192 41.1177 96.016 40.531 95.664C39.9443 95.312 39.4803 94.8213 39.139 94.192C38.8083 93.5627 38.643 92.8267 38.643 91.984C38.643 91.1307 38.8083 90.3947 39.139 89.776C39.4697 89.1467 39.9283 88.656 40.515 88.304C41.1123 87.952 41.795 87.776 42.563 87.776C43.3523 87.776 44.0243 87.952 44.579 88.304C45.1337 88.656 45.555 89.1147 45.843 89.68C46.1417 90.2453 46.291 90.8693 46.291 91.552C46.291 91.6587 46.291 91.7707 46.291 91.888C46.291 92.0053 46.2857 92.1387 46.275 92.288H39.651V91.248H44.963C44.931 90.512 44.6857 89.9413 44.227 89.536C43.779 89.12 43.2137 88.912 42.531 88.912C42.083 88.912 41.6617 89.0187 41.267 89.232C40.8723 89.4347 40.5523 89.7333 40.307 90.128C40.0723 90.5227 39.955 91.0187 39.955 91.616V92.064C39.955 92.7253 40.0777 93.28 40.323 93.728C40.5683 94.1653 40.883 94.496 41.267 94.72C41.6617 94.944 42.083 95.056 42.531 95.056C43.0963 95.056 43.5603 94.9333 43.923 94.688C44.2963 94.432 44.5683 94.0853 44.739 93.648H46.067C45.9283 94.1387 45.699 94.576 45.379 94.96C45.059 95.3333 44.659 95.632 44.179 95.856C43.7097 96.08 43.1603 96.192 42.531 96.192ZM50.7128 96.192C50.0621 96.192 49.5181 96.08 49.0807 95.856C48.6434 95.6213 48.3181 95.3173 48.1048 94.944C47.8914 94.56 47.7848 94.1493 47.7848 93.712C47.7848 93.168 47.9234 92.7093 48.2008 92.336C48.4888 91.952 48.8888 91.664 49.4008 91.472C49.9234 91.2693 50.5314 91.168 51.2248 91.168H53.3688C53.3688 90.6667 53.2888 90.2507 53.1288 89.92C52.9794 89.5893 52.7554 89.3387 52.4568 89.168C52.1581 88.9973 51.7954 88.912 51.3688 88.912C50.8568 88.912 50.4141 89.04 50.0408 89.296C49.6674 89.552 49.4381 89.9307 49.3528 90.432H47.9768C48.0408 89.856 48.2328 89.376 48.5528 88.992C48.8834 88.5973 49.2994 88.2987 49.8008 88.096C50.3021 87.8827 50.8248 87.776 51.3688 87.776C52.1154 87.776 52.7341 87.9147 53.2248 88.192C53.7154 88.4587 54.0834 88.8373 54.3288 89.328C54.5848 89.808 54.7128 90.3733 54.7128 91.024V96H53.5128L53.4328 94.576C53.3261 94.8 53.1874 95.0133 53.0168 95.216C52.8568 95.408 52.6648 95.5787 52.4408 95.728C52.2274 95.8667 51.9768 95.9787 51.6888 96.064C51.4008 96.1493 51.0754 96.192 50.7128 96.192ZM50.9208 95.056C51.2941 95.056 51.6301 94.9813 51.9288 94.832C52.2381 94.672 52.4994 94.4587 52.7128 94.192C52.9261 93.9253 53.0861 93.6267 53.1928 93.296C53.3101 92.9547 53.3688 92.608 53.3688 92.256V92.208H51.3368C50.8248 92.208 50.4088 92.272 50.0888 92.4C49.7688 92.5173 49.5394 92.688 49.4008 92.912C49.2621 93.1253 49.1928 93.3707 49.1928 93.648C49.1928 93.936 49.2568 94.1867 49.3848 94.4C49.5234 94.6027 49.7208 94.7627 49.9768 94.88C50.2328 94.9973 50.5474 95.056 50.9208 95.056ZM56.7759 96V87.968H57.9919L58.1039 89.504C58.2852 89.1413 58.5145 88.832 58.7919 88.576C59.0799 88.32 59.4212 88.1227 59.8159 87.984C60.2105 87.8453 60.6585 87.776 61.1599 87.776V89.184H60.6959C60.3545 89.184 60.0292 89.232 59.7199 89.328C59.4105 89.4133 59.1332 89.5573 58.8879 89.76C58.6532 89.952 58.4665 90.224 58.3279 90.576C58.1892 90.928 58.1199 91.36 58.1199 91.872V96H56.7759ZM62.6665 96V84.48H64.0105V96H62.6665ZM67.109 99.52L69.077 95.104H68.613L65.461 87.968H66.917L69.541 94.096L72.309 87.968H73.701L68.517 99.52H67.109ZM82.4096 96.192C81.759 96.192 81.183 96.0853 80.6816 95.872C80.1803 95.648 79.7803 95.3333 79.4816 94.928C79.1936 94.5227 79.0123 94.048 78.9376 93.504H80.3136C80.3776 93.7813 80.495 94.0427 80.6656 94.288C80.8363 94.5227 81.0656 94.7093 81.3536 94.848C81.6523 94.9867 82.0096 95.056 82.4256 95.056C82.8096 95.056 83.1243 95.0027 83.3696 94.896C83.615 94.7787 83.7963 94.624 83.9136 94.432C84.031 94.24 84.0896 94.032 84.0896 93.808C84.0896 93.488 84.0096 93.2427 83.8496 93.072C83.7003 92.9013 83.4763 92.768 83.1776 92.672C82.879 92.5653 82.5216 92.4747 82.1056 92.4C81.7536 92.336 81.407 92.2507 81.0656 92.144C80.735 92.0373 80.4363 91.8987 80.1696 91.728C79.903 91.5573 79.6896 91.344 79.5296 91.088C79.3696 90.8213 79.2896 90.5067 79.2896 90.144C79.2896 89.6853 79.407 89.28 79.6416 88.928C79.887 88.5653 80.223 88.2827 80.6496 88.08C81.087 87.8773 81.6043 87.776 82.2016 87.776C83.055 87.776 83.7483 87.984 84.2816 88.4C84.8256 88.816 85.1403 89.4187 85.2256 90.208H83.8976C83.855 89.8027 83.6843 89.488 83.3856 89.264C83.087 89.0293 82.687 88.912 82.1856 88.912C81.6843 88.912 81.3003 89.0133 81.0336 89.216C80.7776 89.4187 80.6496 89.6853 80.6496 90.016C80.6496 90.2293 80.719 90.416 80.8576 90.576C81.007 90.736 81.2256 90.8747 81.5136 90.992C81.8016 91.0987 82.1483 91.1947 82.5536 91.28C83.0763 91.376 83.5563 91.504 83.9936 91.664C84.431 91.824 84.783 92.0587 85.0496 92.368C85.327 92.6773 85.4656 93.12 85.4656 93.696C85.4763 94.1973 85.3536 94.6347 85.0976 95.008C84.8523 95.3813 84.5003 95.6747 84.0416 95.888C83.583 96.0907 83.039 96.192 82.4096 96.192ZM90.0409 96.192C89.3902 96.192 88.8462 96.08 88.4089 95.856C87.9715 95.6213 87.6462 95.3173 87.4329 94.944C87.2195 94.56 87.1129 94.1493 87.1129 93.712C87.1129 93.168 87.2515 92.7093 87.5289 92.336C87.8169 91.952 88.2169 91.664 88.7289 91.472C89.2515 91.2693 89.8595 91.168 90.5529 91.168H92.6969C92.6969 90.6667 92.6169 90.2507 92.4569 89.92C92.3075 89.5893 92.0835 89.3387 91.7849 89.168C91.4862 88.9973 91.1235 88.912 90.6969 88.912C90.1849 88.912 89.7422 89.04 89.3689 89.296C88.9955 89.552 88.7662 89.9307 88.6809 90.432H87.3049C87.3689 89.856 87.5609 89.376 87.8809 88.992C88.2115 88.5973 88.6275 88.2987 89.1289 88.096C89.6302 87.8827 90.1529 87.776 90.6969 87.776C91.4435 87.776 92.0622 87.9147 92.5529 88.192C93.0435 88.4587 93.4115 88.8373 93.6569 89.328C93.9129 89.808 94.0409 90.3733 94.0409 91.024V96H92.8409L92.7609 94.576C92.6542 94.8 92.5155 95.0133 92.3449 95.216C92.1849 95.408 91.9929 95.5787 91.7689 95.728C91.5555 95.8667 91.3049 95.9787 91.0169 96.064C90.7289 96.1493 90.4035 96.192 90.0409 96.192ZM90.2489 95.056C90.6222 95.056 90.9582 94.9813 91.2569 94.832C91.5662 94.672 91.8275 94.4587 92.0409 94.192C92.2542 93.9253 92.4142 93.6267 92.5209 93.296C92.6382 92.9547 92.6969 92.608 92.6969 92.256V92.208H90.6649C90.1529 92.208 89.7369 92.272 89.4169 92.4C89.0969 92.5173 88.8675 92.688 88.7289 92.912C88.5902 93.1253 88.5209 93.3707 88.5209 93.648C88.5209 93.936 88.5849 94.1867 88.7129 94.4C88.8515 94.6027 89.0489 94.7627 89.3049 94.88C89.5609 94.9973 89.8755 95.056 90.2489 95.056ZM96.104 96V84.48H97.448V96H96.104ZM103.219 96.192C102.472 96.192 101.805 96.016 101.219 95.664C100.632 95.312 100.168 94.8213 99.8265 94.192C99.4958 93.5627 99.3305 92.8267 99.3305 91.984C99.3305 91.1307 99.4958 90.3947 99.8265 89.776C100.157 89.1467 100.616 88.656 101.203 88.304C101.8 87.952 102.483 87.776 103.251 87.776C104.04 87.776 104.712 87.952 105.267 88.304C105.821 88.656 106.243 89.1147 106.531 89.68C106.829 90.2453 106.979 90.8693 106.979 91.552C106.979 91.6587 106.979 91.7707 106.979 91.888C106.979 92.0053 106.973 92.1387 106.963 92.288H100.339V91.248H105.651C105.619 90.512 105.373 89.9413 104.915 89.536C104.467 89.12 103.901 88.912 103.219 88.912C102.771 88.912 102.349 89.0187 101.955 89.232C101.56 89.4347 101.24 89.7333 100.995 90.128C100.76 90.5227 100.643 91.0187 100.643 91.616V92.064C100.643 92.7253 100.765 93.28 101.011 93.728C101.256 94.1653 101.571 94.496 101.955 94.72C102.349 94.944 102.771 95.056 103.219 95.056C103.784 95.056 104.248 94.9333 104.611 94.688C104.984 94.432 105.256 94.0853 105.427 93.648H106.755C106.616 94.1387 106.387 94.576 106.067 94.96C105.747 95.3333 105.347 95.632 104.867 95.856C104.397 96.08 103.848 96.192 103.219 96.192ZM111.8 96.192C111.15 96.192 110.574 96.0853 110.072 95.872C109.571 95.648 109.171 95.3333 108.872 94.928C108.584 94.5227 108.403 94.048 108.328 93.504H109.704C109.768 93.7813 109.886 94.0427 110.056 94.288C110.227 94.5227 110.456 94.7093 110.744 94.848C111.043 94.9867 111.4 95.056 111.816 95.056C112.2 95.056 112.515 95.0027 112.76 94.896C113.006 94.7787 113.187 94.624 113.304 94.432C113.422 94.24 113.48 94.032 113.48 93.808C113.48 93.488 113.4 93.2427 113.24 93.072C113.091 92.9013 112.867 92.768 112.568 92.672C112.27 92.5653 111.912 92.4747 111.496 92.4C111.144 92.336 110.798 92.2507 110.456 92.144C110.126 92.0373 109.827 91.8987 109.56 91.728C109.294 91.5573 109.08 91.344 108.92 91.088C108.76 90.8213 108.68 90.5067 108.68 90.144C108.68 89.6853 108.798 89.28 109.032 88.928C109.278 88.5653 109.614 88.2827 110.04 88.08C110.478 87.8773 110.995 87.776 111.592 87.776C112.446 87.776 113.139 87.984 113.672 88.4C114.216 88.816 114.531 89.4187 114.616 90.208H113.288C113.246 89.8027 113.075 89.488 112.776 89.264C112.478 89.0293 112.078 88.912 111.576 88.912C111.075 88.912 110.691 89.0133 110.424 89.216C110.168 89.4187 110.04 89.6853 110.04 90.016C110.04 90.2293 110.11 90.416 110.248 90.576C110.398 90.736 110.616 90.8747 110.904 90.992C111.192 91.0987 111.539 91.1947 111.944 91.28C112.467 91.376 112.947 91.504 113.384 91.664C113.822 91.824 114.174 92.0587 114.44 92.368C114.718 92.6773 114.856 93.12 114.856 93.696C114.867 94.1973 114.744 94.6347 114.488 95.008C114.243 95.3813 113.891 95.6747 113.432 95.888C112.974 96.0907 112.43 96.192 111.8 96.192Z" fill="#777E89"/>
<circle cx="35" cy="124.5" r="5" fill="#FB9678"/>
<path d="M49.008 130V129.056C49.7653 128.459 50.48 127.856 51.152 127.248C51.8347 126.629 52.4373 126.021 52.96 125.424C53.4933 124.827 53.9093 124.24 54.208 123.664C54.5173 123.088 54.672 122.533 54.672 122C54.672 121.605 54.6027 121.237 54.464 120.896C54.336 120.555 54.1227 120.283 53.824 120.08C53.5253 119.867 53.12 119.76 52.608 119.76C52.1173 119.76 51.7067 119.872 51.376 120.096C51.0453 120.309 50.7947 120.597 50.624 120.96C50.464 121.323 50.384 121.712 50.384 122.128H49.088C49.088 121.392 49.2427 120.763 49.552 120.24C49.8613 119.707 50.2827 119.301 50.816 119.024C51.3493 118.747 51.952 118.608 52.624 118.608C53.616 118.608 54.4267 118.891 55.056 119.456C55.696 120.011 56.016 120.843 56.016 121.952C56.016 122.613 55.8507 123.269 55.52 123.92C55.1893 124.56 54.768 125.184 54.256 125.792C53.744 126.389 53.1947 126.949 52.608 127.472C52.032 127.995 51.4933 128.464 50.992 128.88H56.4V130H49.008ZM62.552 130.192C61.56 130.192 60.7013 129.952 59.976 129.472C59.2613 128.981 58.712 128.304 58.328 127.44C57.944 126.565 57.752 125.552 57.752 124.4C57.752 123.248 57.944 122.24 58.328 121.376C58.712 120.501 59.2613 119.824 59.976 119.344C60.7013 118.853 61.56 118.608 62.552 118.608C63.544 118.608 64.3973 118.853 65.112 119.344C65.8267 119.824 66.376 120.501 66.76 121.376C67.144 122.24 67.336 123.248 67.336 124.4C67.336 125.552 67.144 126.565 66.76 127.44C66.376 128.304 65.8267 128.981 65.112 129.472C64.3973 129.952 63.544 130.192 62.552 130.192ZM62.552 129.008C63.2027 129.008 63.784 128.827 64.296 128.464C64.8187 128.091 65.224 127.563 65.512 126.88C65.8107 126.187 65.96 125.36 65.96 124.4C65.96 123.44 65.8107 122.619 65.512 121.936C65.224 121.253 64.8187 120.731 64.296 120.368C63.784 119.995 63.2027 119.808 62.552 119.808C61.8907 119.808 61.304 119.995 60.792 120.368C60.28 120.731 59.8747 121.253 59.576 121.936C59.2773 122.619 59.128 123.44 59.128 124.4C59.128 125.36 59.2773 126.187 59.576 126.88C59.8747 127.563 60.28 128.091 60.792 128.464C61.304 128.827 61.8907 129.008 62.552 129.008ZM68.9455 130V129.056C69.7028 128.459 70.4175 127.856 71.0895 127.248C71.7722 126.629 72.3748 126.021 72.8975 125.424C73.4308 124.827 73.8468 124.24 74.1455 123.664C74.4548 123.088 74.6095 122.533 74.6095 122C74.6095 121.605 74.5402 121.237 74.4015 120.896C74.2735 120.555 74.0602 120.283 73.7615 120.08C73.4628 119.867 73.0575 119.76 72.5455 119.76C72.0548 119.76 71.6442 119.872 71.3135 120.096C70.9828 120.309 70.7322 120.597 70.5615 120.96C70.4015 121.323 70.3215 121.712 70.3215 122.128H69.0255C69.0255 121.392 69.1802 120.763 69.4895 120.24C69.7988 119.707 70.2202 119.301 70.7535 119.024C71.2868 118.747 71.8895 118.608 72.5615 118.608C73.5535 118.608 74.3642 118.891 74.9935 119.456C75.6335 120.011 75.9535 120.843 75.9535 121.952C75.9535 122.613 75.7882 123.269 75.4575 123.92C75.1268 124.56 74.7055 125.184 74.1935 125.792C73.6815 126.389 73.1322 126.949 72.5455 127.472C71.9695 127.995 71.4308 128.464 70.9295 128.88H76.3375V130H68.9455ZM79.3818 130V120.304L77.5738 120.704V119.776L79.8298 118.8H80.7418V130H79.3818Z" fill="#777E89"/>
<circle cx="117" cy="124.5" r="5" fill="#03C9D7"/>
<path d="M131.008 130V129.056C131.765 128.459 132.48 127.856 133.152 127.248C133.835 126.629 134.437 126.021 134.96 125.424C135.493 124.827 135.909 124.24 136.208 123.664C136.517 123.088 136.672 122.533 136.672 122C136.672 121.605 136.603 121.237 136.464 120.896C136.336 120.555 136.123 120.283 135.824 120.08C135.525 119.867 135.12 119.76 134.608 119.76C134.117 119.76 133.707 119.872 133.376 120.096C133.045 120.309 132.795 120.597 132.624 120.96C132.464 121.323 132.384 121.712 132.384 122.128H131.088C131.088 121.392 131.243 120.763 131.552 120.24C131.861 119.707 132.283 119.301 132.816 119.024C133.349 118.747 133.952 118.608 134.624 118.608C135.616 118.608 136.427 118.891 137.056 119.456C137.696 120.011 138.016 120.843 138.016 121.952C138.016 122.613 137.851 123.269 137.52 123.92C137.189 124.56 136.768 125.184 136.256 125.792C135.744 126.389 135.195 126.949 134.608 127.472C134.032 127.995 133.493 128.464 132.992 128.88H138.4V130H131.008ZM144.552 130.192C143.56 130.192 142.701 129.952 141.976 129.472C141.261 128.981 140.712 128.304 140.328 127.44C139.944 126.565 139.752 125.552 139.752 124.4C139.752 123.248 139.944 122.24 140.328 121.376C140.712 120.501 141.261 119.824 141.976 119.344C142.701 118.853 143.56 118.608 144.552 118.608C145.544 118.608 146.397 118.853 147.112 119.344C147.827 119.824 148.376 120.501 148.76 121.376C149.144 122.24 149.336 123.248 149.336 124.4C149.336 125.552 149.144 126.565 148.76 127.44C148.376 128.304 147.827 128.981 147.112 129.472C146.397 129.952 145.544 130.192 144.552 130.192ZM144.552 129.008C145.203 129.008 145.784 128.827 146.296 128.464C146.819 128.091 147.224 127.563 147.512 126.88C147.811 126.187 147.96 125.36 147.96 124.4C147.96 123.44 147.811 122.619 147.512 121.936C147.224 121.253 146.819 120.731 146.296 120.368C145.784 119.995 145.203 119.808 144.552 119.808C143.891 119.808 143.304 119.995 142.792 120.368C142.28 120.731 141.875 121.253 141.576 121.936C141.277 122.619 141.128 123.44 141.128 124.4C141.128 125.36 141.277 126.187 141.576 126.88C141.875 127.563 142.28 128.091 142.792 128.464C143.304 128.827 143.891 129.008 144.552 129.008ZM150.946 130V129.056C151.703 128.459 152.418 127.856 153.09 127.248C153.772 126.629 154.375 126.021 154.898 125.424C155.431 124.827 155.847 124.24 156.146 123.664C156.455 123.088 156.61 122.533 156.61 122C156.61 121.605 156.54 121.237 156.402 120.896C156.274 120.555 156.06 120.283 155.762 120.08C155.463 119.867 155.058 119.76 154.546 119.76C154.055 119.76 153.644 119.872 153.314 120.096C152.983 120.309 152.732 120.597 152.562 120.96C152.402 121.323 152.322 121.712 152.322 122.128H151.026C151.026 121.392 151.18 120.763 151.49 120.24C151.799 119.707 152.22 119.301 152.754 119.024C153.287 118.747 153.89 118.608 154.562 118.608C155.554 118.608 156.364 118.891 156.994 119.456C157.634 120.011 157.954 120.843 157.954 121.952C157.954 122.613 157.788 123.269 157.458 123.92C157.127 124.56 156.706 125.184 156.194 125.792C155.682 126.389 155.132 126.949 154.546 127.472C153.97 127.995 153.431 128.464 152.93 128.88H158.338V130H150.946ZM164.49 130.192C163.498 130.192 162.639 129.952 161.914 129.472C161.199 128.981 160.65 128.304 160.266 127.44C159.882 126.565 159.69 125.552 159.69 124.4C159.69 123.248 159.882 122.24 160.266 121.376C160.65 120.501 161.199 119.824 161.914 119.344C162.639 118.853 163.498 118.608 164.49 118.608C165.482 118.608 166.335 118.853 167.05 119.344C167.764 119.824 168.314 120.501 168.698 121.376C169.082 122.24 169.274 123.248 169.274 124.4C169.274 125.552 169.082 126.565 168.698 127.44C168.314 128.304 167.764 128.981 167.05 129.472C166.335 129.952 165.482 130.192 164.49 130.192ZM164.49 129.008C165.14 129.008 165.722 128.827 166.234 128.464C166.756 128.091 167.161 127.563 167.45 126.88C167.748 126.187 167.898 125.36 167.898 124.4C167.898 123.44 167.748 122.619 167.45 121.936C167.161 121.253 166.756 120.731 166.234 120.368C165.722 119.995 165.14 119.808 164.49 119.808C163.828 119.808 163.242 119.995 162.73 120.368C162.218 120.731 161.812 121.253 161.514 121.936C161.215 122.619 161.066 123.44 161.066 124.4C161.066 125.36 161.215 126.187 161.514 126.88C161.812 127.563 162.218 128.091 162.73 128.464C163.242 128.827 163.828 129.008 164.49 129.008Z" fill="#777E89"/>
<circle cx="35" cy="162.5" r="5" fill="#FECA07"/>
<path d="M47.008 168V167.056C47.7653 166.459 48.48 165.856 49.152 165.248C49.8347 164.629 50.4373 164.021 50.96 163.424C51.4933 162.827 51.9093 162.24 52.208 161.664C52.5173 161.088 52.672 160.533 52.672 160C52.672 159.605 52.6027 159.237 52.464 158.896C52.336 158.555 52.1227 158.283 51.824 158.08C51.5253 157.867 51.12 157.76 50.608 157.76C50.1173 157.76 49.7067 157.872 49.376 158.096C49.0453 158.309 48.7947 158.597 48.624 158.96C48.464 159.323 48.384 159.712 48.384 160.128H47.088C47.088 159.392 47.2427 158.763 47.552 158.24C47.8613 157.707 48.2827 157.301 48.816 157.024C49.3493 156.747 49.952 156.608 50.624 156.608C51.616 156.608 52.4267 156.891 53.056 157.456C53.696 158.011 54.016 158.843 54.016 159.952C54.016 160.613 53.8507 161.269 53.52 161.92C53.1893 162.56 52.768 163.184 52.256 163.792C51.744 164.389 51.1947 164.949 50.608 165.472C50.032 165.995 49.4933 166.464 48.992 166.88H54.4V168H47.008ZM60.552 168.192C59.56 168.192 58.7013 167.952 57.976 167.472C57.2613 166.981 56.712 166.304 56.328 165.44C55.944 164.565 55.752 163.552 55.752 162.4C55.752 161.248 55.944 160.24 56.328 159.376C56.712 158.501 57.2613 157.824 57.976 157.344C58.7013 156.853 59.56 156.608 60.552 156.608C61.544 156.608 62.3973 156.853 63.112 157.344C63.8267 157.824 64.376 158.501 64.76 159.376C65.144 160.24 65.336 161.248 65.336 162.4C65.336 163.552 65.144 164.565 64.76 165.44C64.376 166.304 63.8267 166.981 63.112 167.472C62.3973 167.952 61.544 168.192 60.552 168.192ZM60.552 167.008C61.2027 167.008 61.784 166.827 62.296 166.464C62.8187 166.091 63.224 165.563 63.512 164.88C63.8107 164.187 63.96 163.36 63.96 162.4C63.96 161.44 63.8107 160.619 63.512 159.936C63.224 159.253 62.8187 158.731 62.296 158.368C61.784 157.995 61.2027 157.808 60.552 157.808C59.8907 157.808 59.304 157.995 58.792 158.368C58.28 158.731 57.8747 159.253 57.576 159.936C57.2773 160.619 57.128 161.44 57.128 162.4C57.128 163.36 57.2773 164.187 57.576 164.88C57.8747 165.563 58.28 166.091 58.792 166.464C59.304 166.827 59.8907 167.008 60.552 167.008ZM68.3818 168V158.304L66.5738 158.704V157.776L68.8298 156.8H69.7418V168H68.3818ZM75.8019 168.192C75.0979 168.192 74.4952 168.053 73.9939 167.776C73.4925 167.499 73.0925 167.131 72.7939 166.672C72.5059 166.203 72.3299 165.685 72.2659 165.12H73.5139C73.6205 165.728 73.8765 166.197 74.2819 166.528C74.6872 166.859 75.1992 167.024 75.8179 167.024C76.6712 167.024 77.3805 166.629 77.9459 165.84C78.5112 165.04 78.8152 163.797 78.8579 162.112C78.6019 162.613 78.1912 163.051 77.6259 163.424C77.0712 163.787 76.3992 163.968 75.6099 163.968C74.9805 163.968 74.3832 163.819 73.8179 163.52C73.2525 163.221 72.7939 162.805 72.4419 162.272C72.0899 161.728 71.9139 161.093 71.9139 160.368C71.9139 159.739 72.0685 159.136 72.3779 158.56C72.6979 157.984 73.1459 157.515 73.7219 157.152C74.2979 156.789 74.9859 156.608 75.7859 156.608C76.5965 156.608 77.2792 156.763 77.8339 157.072C78.3885 157.371 78.8312 157.776 79.1619 158.288C79.5032 158.8 79.7485 159.376 79.8979 160.016C80.0579 160.645 80.1379 161.291 80.1379 161.952C80.1379 163.189 79.9672 164.277 79.6259 165.216C79.2845 166.144 78.7885 166.875 78.1379 167.408C77.4979 167.931 76.7192 168.192 75.8019 168.192ZM75.8819 162.8C76.3832 162.8 76.8312 162.688 77.2259 162.464C77.6205 162.229 77.9352 161.92 78.1699 161.536C78.4045 161.152 78.5219 160.736 78.5219 160.288C78.5219 159.808 78.4045 159.381 78.1699 159.008C77.9352 158.624 77.6205 158.325 77.2259 158.112C76.8312 157.899 76.3832 157.792 75.8819 157.792C75.3805 157.792 74.9325 157.899 74.5379 158.112C74.1432 158.325 73.8339 158.624 73.6099 159.008C73.3859 159.381 73.2739 159.813 73.2739 160.304C73.2739 161.061 73.5192 161.669 74.0099 162.128C74.5112 162.576 75.1352 162.8 75.8819 162.8Z" fill="#777E89"/>
<path d="M330 109.5C330 140.152 305.152 165 274.5 165C243.848 165 219 140.152 219 109.5C219 78.8482 243.848 54 274.5 54C305.152 54 330 78.8482 330 109.5ZM231.728 109.5C231.728 133.122 250.878 152.272 274.5 152.272C298.122 152.272 317.272 133.122 317.272 109.5C317.272 85.8777 298.122 66.728 274.5 66.728C250.878 66.728 231.728 85.8777 231.728 109.5Z" fill="#ECF0F2"/>
<path d="M225.364 109.5C221.849 109.5 218.962 112.359 219.364 115.85C220.525 125.929 224.433 135.541 230.718 143.609C237.003 151.676 245.367 157.816 254.856 161.407C258.143 162.651 261.621 160.551 262.481 157.143V157.143C263.341 153.735 261.248 150.319 258.005 148.963C251.252 146.141 245.301 141.616 240.759 135.786C236.217 129.956 233.286 123.079 232.201 115.841C231.68 112.365 228.879 109.5 225.364 109.5V109.5Z" fill="#FECA07"/>
<path d="M255.629 154.868C254.279 158.113 255.81 161.876 259.188 162.846C267.559 165.249 276.41 165.656 285.02 163.994C295.721 161.928 305.576 156.758 313.358 149.127C321.139 141.497 326.502 131.745 328.777 121.087C330.608 112.511 330.374 103.654 328.136 95.2371C327.233 91.8404 323.5 90.2363 320.229 91.5223V91.5223C316.958 92.8082 315.4 96.4991 316.186 99.9246C317.578 105.984 317.638 112.3 316.33 118.429C314.576 126.643 310.443 134.159 304.446 140.039C298.449 145.92 290.854 149.905 282.607 151.497C276.453 152.685 270.14 152.501 264.109 150.991C260.7 150.137 256.979 151.623 255.629 154.868V154.868Z" fill="#03C9D7"/>
<path d="M323.558 106.741C327.068 106.544 329.79 103.528 329.192 100.064C328.318 94.9974 326.742 90.0664 324.502 85.4156C321.339 78.8492 316.914 72.9701 311.479 68.114C306.044 63.2578 299.706 59.5197 292.826 57.1131C287.954 55.4085 282.877 54.3955 277.744 54.0949C274.236 53.8894 271.544 56.9323 271.741 60.4415V60.4415C271.938 63.9507 274.956 66.5863 278.456 66.9113C281.915 67.2326 285.33 67.9748 288.624 69.1272C293.925 70.9819 298.81 73.8627 302.998 77.6052C307.187 81.3477 310.597 85.8785 313.035 90.9389C314.549 94.083 315.67 97.3932 316.377 100.794C317.092 104.236 320.049 106.938 323.558 106.741V106.741Z" fill="#FB9678"/>
<path d="M270 120C270.552 120 271 119.552 271 119C271 118.448 270.552 118 270 118C269.448 118 269 118.448 269 119C269 119.552 269.448 120 270 120Z" stroke="#777E89" stroke-width="2" stroke-linecap="round" stroke-linejoin="round"/>
<path d="M281 120C281.552 120 282 119.552 282 119C282 118.448 281.552 118 281 118C280.448 118 280 118.448 280 119C280 119.552 280.448 120 281 120Z" stroke="#777E89" stroke-width="2" stroke-linecap="round" stroke-linejoin="round"/>
<path d="M262 99H266L268.68 112.39C268.771 112.85 269.022 113.264 269.388 113.558C269.753 113.853 270.211 114.009 270.68 114H280.4C280.869 114.009 281.327 113.853 281.692 113.558C282.058 113.264 282.309 112.85 282.4 112.39L284 104H267" stroke="#777E89" stroke-width="2" stroke-linecap="round" stroke-linejoin="round"/>
</svg>
