<svg width="360" height="219" viewBox="0 0 360 219" fill="none" xmlns="http://www.w3.org/2000/svg">
<rect width="360" height="219" rx="20" fill="white"/>
<path d="M31.136 47V35.8H33.136L36.928 43.256L40.704 35.8H42.704V47H41.008V38.728L37.584 45.4H36.272L32.832 38.744V47H31.136ZM48.6278 47.192C47.8704 47.192 47.1878 47.0213 46.5798 46.68C45.9824 46.328 45.5078 45.8427 45.1558 45.224C44.8038 44.5947 44.6278 43.864 44.6278 43.032C44.6278 42.2 44.8038 41.4747 45.1558 40.856C45.5184 40.2267 46.0038 39.7413 46.6118 39.4C47.2198 39.048 47.8971 38.872 48.6438 38.872C49.4011 38.872 50.0784 39.048 50.6758 39.4C51.2838 39.7413 51.7638 40.2267 52.1158 40.856C52.4784 41.4747 52.6597 42.2 52.6597 43.032C52.6597 43.864 52.4784 44.5947 52.1158 45.224C51.7638 45.8427 51.2838 46.328 50.6758 46.68C50.0678 47.0213 49.3851 47.192 48.6278 47.192ZM48.6278 45.736C49.0331 45.736 49.4064 45.6347 49.7478 45.432C50.0998 45.2293 50.3824 44.9307 50.5958 44.536C50.8091 44.1307 50.9158 43.6293 50.9158 43.032C50.9158 42.4347 50.8091 41.9387 50.5958 41.544C50.3931 41.1387 50.1158 40.8347 49.7638 40.632C49.4224 40.4293 49.0491 40.328 48.6438 40.328C48.2384 40.328 47.8598 40.4293 47.5078 40.632C47.1664 40.8347 46.8891 41.1387 46.6758 41.544C46.4624 41.9387 46.3558 42.4347 46.3558 43.032C46.3558 43.6293 46.4624 44.1307 46.6758 44.536C46.8891 44.9307 47.1664 45.2293 47.5078 45.432C47.8491 45.6347 48.2224 45.736 48.6278 45.736ZM54.4939 47V39.064H55.9979L56.1259 40.456C56.3712 39.9653 56.7285 39.5813 57.1979 39.304C57.6779 39.016 58.2272 38.872 58.8459 38.872C59.8059 38.872 60.5579 39.1707 61.1019 39.768C61.6565 40.3653 61.9339 41.256 61.9339 42.44V47H60.2539V42.616C60.2539 41.08 59.6245 40.312 58.3659 40.312C57.7365 40.312 57.2139 40.536 56.7979 40.984C56.3925 41.432 56.1899 42.072 56.1899 42.904V47H54.4939ZM67.2594 47C66.4807 47 65.862 46.8133 65.4034 46.44C64.9447 46.056 64.7154 45.3787 64.7154 44.408V40.488H63.3554V39.064H64.7154L64.9234 37.048H66.4114V39.064H68.6514V40.488H66.4114V44.408C66.4114 44.8453 66.502 45.1493 66.6834 45.32C66.8754 45.48 67.2007 45.56 67.6594 45.56H68.5714V47H67.2594ZM70.4001 47V35.48H72.0961V40.344C72.3628 39.8853 72.7308 39.528 73.2001 39.272C73.6801 39.0053 74.2081 38.872 74.7841 38.872C75.7335 38.872 76.4801 39.1707 77.0241 39.768C77.5681 40.3653 77.8401 41.256 77.8401 42.44V47H76.1601V42.616C76.1601 41.08 75.5468 40.312 74.3201 40.312C73.6801 40.312 73.1468 40.536 72.7201 40.984C72.3041 41.432 72.0961 42.072 72.0961 42.904V47H70.4001ZM79.8376 47V35.48H81.5336V47H79.8376ZM84.6094 50.52L86.5134 46.344H86.0494L82.9134 39.064H84.7534L87.1854 44.936L89.7294 39.064H91.5214L86.4014 50.52H84.6094ZM100.707 47.192C99.8857 47.192 99.1657 47.048 98.547 46.76C97.9283 46.472 97.443 46.0613 97.091 45.528C96.7497 44.9947 96.5737 44.36 96.563 43.624H98.355C98.3657 44.2213 98.5737 44.728 98.979 45.144C99.3843 45.56 99.955 45.768 100.691 45.768C101.342 45.768 101.848 45.6133 102.211 45.304C102.584 44.984 102.771 44.5787 102.771 44.088C102.771 43.6933 102.68 43.3733 102.499 43.128C102.328 42.8827 102.088 42.68 101.779 42.52C101.48 42.36 101.134 42.216 100.739 42.088C100.344 41.96 99.9283 41.8213 99.491 41.672C98.627 41.384 97.9763 41.0107 97.539 40.552C97.1123 40.0933 96.899 39.4907 96.899 38.744C96.8883 38.1147 97.0323 37.5653 97.331 37.096C97.6403 36.6267 98.067 36.264 98.611 36.008C99.1657 35.7413 99.811 35.608 100.547 35.608C101.272 35.608 101.907 35.7413 102.451 36.008C103.006 36.2747 103.438 36.648 103.747 37.128C104.056 37.5973 104.216 38.1467 104.227 38.776H102.435C102.435 38.488 102.36 38.216 102.211 37.96C102.062 37.6933 101.843 37.4747 101.555 37.304C101.267 37.1333 100.915 37.048 100.499 37.048C99.9657 37.0373 99.523 37.1707 99.171 37.448C98.8297 37.7253 98.659 38.1093 98.659 38.6C98.659 39.0373 98.787 39.3733 99.043 39.608C99.299 39.8427 99.651 40.04 100.099 40.2C100.547 40.3493 101.059 40.5253 101.635 40.728C102.19 40.9093 102.686 41.128 103.123 41.384C103.56 41.64 103.907 41.976 104.163 42.392C104.43 42.808 104.563 43.336 104.563 43.976C104.563 44.5413 104.419 45.0693 104.131 45.56C103.843 46.04 103.411 46.4347 102.835 46.744C102.259 47.0427 101.55 47.192 100.707 47.192ZM109.041 47.192C108.369 47.192 107.815 47.08 107.377 46.856C106.94 46.632 106.615 46.3387 106.401 45.976C106.188 45.6027 106.081 45.1973 106.081 44.76C106.081 43.992 106.38 43.384 106.977 42.936C107.575 42.488 108.428 42.264 109.537 42.264H111.617V42.12C111.617 41.5013 111.447 41.0373 111.105 40.728C110.775 40.4187 110.343 40.264 109.809 40.264C109.34 40.264 108.929 40.3813 108.577 40.616C108.236 40.84 108.028 41.176 107.953 41.624H106.257C106.311 41.048 106.503 40.5573 106.833 40.152C107.175 39.736 107.601 39.4213 108.113 39.208C108.636 38.984 109.207 38.872 109.825 38.872C110.935 38.872 111.793 39.1653 112.401 39.752C113.009 40.328 113.313 41.1173 113.313 42.12V47H111.841L111.697 45.64C111.473 46.0773 111.148 46.4453 110.721 46.744C110.295 47.0427 109.735 47.192 109.041 47.192ZM109.377 45.816C109.836 45.816 110.22 45.7093 110.529 45.496C110.849 45.272 111.095 44.9787 111.265 44.616C111.447 44.2533 111.559 43.8533 111.601 43.416H109.713C109.041 43.416 108.561 43.5333 108.273 43.768C107.996 44.0027 107.857 44.296 107.857 44.648C107.857 45.0107 107.991 45.2987 108.257 45.512C108.535 45.7147 108.908 45.816 109.377 45.816ZM115.291 47V35.48H116.987V47H115.291ZM122.847 47.192C122.068 47.192 121.375 47.0213 120.767 46.68C120.169 46.328 119.7 45.8427 119.359 45.224C119.017 44.6053 118.847 43.8853 118.847 43.064C118.847 42.232 119.012 41.5013 119.343 40.872C119.684 40.2427 120.153 39.752 120.751 39.4C121.359 39.048 122.063 38.872 122.863 38.872C123.641 38.872 124.319 39.048 124.895 39.4C125.471 39.7413 125.919 40.2 126.239 40.776C126.559 41.352 126.719 41.9867 126.719 42.68C126.719 42.7867 126.713 42.904 126.703 43.032C126.703 43.1493 126.697 43.2827 126.687 43.432H120.511C120.564 44.2 120.815 44.7867 121.263 45.192C121.721 45.5867 122.249 45.784 122.847 45.784C123.327 45.784 123.727 45.6773 124.047 45.464C124.377 45.24 124.623 44.9413 124.783 44.568H126.479C126.265 45.3147 125.839 45.9387 125.199 46.44C124.569 46.9413 123.785 47.192 122.847 47.192ZM122.847 40.264C122.281 40.264 121.78 40.4347 121.343 40.776C120.905 41.1067 120.639 41.608 120.543 42.28H125.023C124.991 41.6613 124.772 41.1707 124.367 40.808C123.961 40.4453 123.455 40.264 122.847 40.264ZM131.646 47.192C130.644 47.192 129.817 46.9467 129.166 46.456C128.516 45.9653 128.142 45.3147 128.046 44.504H129.758C129.844 44.8667 130.046 45.1813 130.366 45.448C130.686 45.704 131.108 45.832 131.63 45.832C132.142 45.832 132.516 45.7253 132.75 45.512C132.985 45.2987 133.102 45.0533 133.102 44.776C133.102 44.3707 132.937 44.0987 132.606 43.96C132.286 43.8107 131.838 43.6773 131.262 43.56C130.814 43.464 130.366 43.336 129.918 43.176C129.481 43.016 129.113 42.792 128.814 42.504C128.526 42.2053 128.382 41.8053 128.382 41.304C128.382 40.6107 128.649 40.0347 129.182 39.576C129.716 39.1067 130.462 38.872 131.422 38.872C132.308 38.872 133.022 39.0853 133.566 39.512C134.121 39.9387 134.446 40.5413 134.542 41.32H132.91C132.857 40.9787 132.697 40.712 132.43 40.52C132.174 40.328 131.828 40.232 131.39 40.232C130.964 40.232 130.633 40.3227 130.398 40.504C130.164 40.6747 130.046 40.8987 130.046 41.176C130.046 41.4533 130.206 41.672 130.526 41.832C130.857 41.992 131.289 42.136 131.822 42.264C132.356 42.3813 132.846 42.52 133.294 42.68C133.753 42.8293 134.121 43.0533 134.398 43.352C134.676 43.6507 134.814 44.088 134.814 44.664C134.825 45.3893 134.542 45.992 133.966 46.472C133.401 46.952 132.628 47.192 131.646 47.192Z" fill="#777E89"/>
<path d="M37.08 81.288C35.992 81.288 35 81.096 34.104 80.712C33.224 80.312 32.52 79.712 31.992 78.912C31.464 78.112 31.184 77.112 31.152 75.912H33.672C33.704 76.808 34.008 77.568 34.584 78.192C35.176 78.8 36.008 79.104 37.08 79.104C38.104 79.104 38.888 78.824 39.432 78.264C39.976 77.688 40.248 76.976 40.248 76.128C40.248 75.104 39.88 74.344 39.144 73.848C38.424 73.352 37.536 73.104 36.48 73.104H35.232V70.992H36.504C37.448 70.992 38.208 70.768 38.784 70.32C39.376 69.872 39.672 69.24 39.672 68.424C39.672 67.736 39.44 67.176 38.976 66.744C38.528 66.312 37.888 66.096 37.056 66.096C36.192 66.096 35.512 66.352 35.016 66.864C34.52 67.36 34.248 67.984 34.2 68.736H31.68C31.712 67.76 31.952 66.912 32.4 66.192C32.864 65.472 33.496 64.912 34.296 64.512C35.096 64.112 36.016 63.912 37.056 63.912C38.176 63.912 39.112 64.112 39.864 64.512C40.632 64.896 41.208 65.424 41.592 66.096C41.992 66.752 42.192 67.472 42.192 68.256C42.192 69.152 41.944 69.936 41.448 70.608C40.952 71.28 40.288 71.728 39.456 71.952C40.416 72.16 41.208 72.632 41.832 73.368C42.456 74.088 42.768 75.024 42.768 76.176C42.768 77.104 42.552 77.96 42.12 78.744C41.688 79.512 41.048 80.128 40.2 80.592C39.352 81.056 38.312 81.288 37.08 81.288ZM44.3951 83.832L45.7871 78.168H48.3071L46.0991 83.832H44.3951ZM50.4696 81V79.176C51.5576 78.312 52.5976 77.44 53.5896 76.56C54.5816 75.68 55.4616 74.816 56.2296 73.968C57.0136 73.104 57.6296 72.264 58.0776 71.448C58.5256 70.616 58.7496 69.816 58.7496 69.048C58.7496 68.536 58.6616 68.056 58.4856 67.608C58.3096 67.144 58.0216 66.776 57.6216 66.504C57.2216 66.216 56.6856 66.072 56.0136 66.072C55.0056 66.072 54.2456 66.392 53.7336 67.032C53.2376 67.672 52.9976 68.44 53.0136 69.336H50.5416C50.5576 68.152 50.8056 67.16 51.2856 66.36C51.7816 65.56 52.4376 64.952 53.2536 64.536C54.0856 64.12 55.0216 63.912 56.0616 63.912C57.6456 63.912 58.9096 64.36 59.8536 65.256C60.8136 66.136 61.2936 67.368 61.2936 68.952C61.2936 69.896 61.0616 70.832 60.5976 71.76C60.1496 72.688 59.5576 73.584 58.8216 74.448C58.1016 75.296 57.3256 76.096 56.4936 76.848C55.6616 77.6 54.8696 78.28 54.1176 78.888H61.7976V81H50.4696ZM71.8913 81V77.64H63.4673V75.624L71.4833 64.2H74.4113V75.432H76.7633V77.64H74.4113V81H71.8913ZM66.2273 75.432H72.0353V67.008L66.2273 75.432ZM85.3564 81.288C84.1244 81.288 83.0844 81.056 82.2364 80.592C81.3884 80.128 80.7004 79.512 80.1724 78.744C79.6604 77.976 79.2924 77.112 79.0684 76.152C78.8444 75.192 78.7324 74.208 78.7324 73.2C78.7324 71.344 78.9884 69.72 79.5004 68.328C80.0284 66.936 80.7804 65.856 81.7564 65.088C82.7324 64.304 83.9164 63.912 85.3084 63.912C86.4124 63.912 87.3564 64.128 88.1404 64.56C88.9244 64.992 89.5324 65.568 89.9644 66.288C90.4124 67.008 90.6844 67.792 90.7804 68.64H88.4044C88.2604 67.808 87.9164 67.168 87.3724 66.72C86.8284 66.272 86.1324 66.048 85.2844 66.048C84.1164 66.048 83.1484 66.6 82.3804 67.704C81.6284 68.792 81.2284 70.472 81.1804 72.744C81.5644 72.04 82.1564 71.44 82.9564 70.944C83.7724 70.448 84.7084 70.2 85.7644 70.2C86.7084 70.2 87.5884 70.424 88.4044 70.872C89.2364 71.32 89.9084 71.952 90.4204 72.768C90.9484 73.568 91.2124 74.52 91.2124 75.624C91.2124 76.6 90.9724 77.52 90.4924 78.384C90.0124 79.248 89.3324 79.952 88.4524 80.496C87.5884 81.024 86.5564 81.288 85.3564 81.288ZM85.2124 79.08C85.8844 79.08 86.4844 78.936 87.0124 78.648C87.5404 78.36 87.9564 77.968 88.2604 77.472C88.5644 76.96 88.7164 76.384 88.7164 75.744C88.7164 74.72 88.3804 73.904 87.7084 73.296C87.0524 72.688 86.2124 72.384 85.1884 72.384C84.5164 72.384 83.9084 72.536 83.3644 72.84C82.8364 73.144 82.4204 73.552 82.1164 74.064C81.8124 74.56 81.6604 75.112 81.6604 75.72C81.6604 76.376 81.8124 76.96 82.1164 77.472C82.4364 77.968 82.8604 78.36 83.3884 78.648C83.9324 78.936 84.5404 79.08 85.2124 79.08Z" fill="black" fill-opacity="0.87"/>
<rect x="282" y="30" width="48" height="48" rx="24" fill="#03C9D7"/>
<g clip-path="url(#clip0_176_510)">
<path d="M300 44L297 48V62C297 62.5304 297.211 63.0391 297.586 63.4142C297.961 63.7893 298.47 64 299 64H313C313.53 64 314.039 63.7893 314.414 63.4142C314.789 63.0391 315 62.5304 315 62V48L312 44H300Z" stroke="white" stroke-width="2" stroke-linecap="round" stroke-linejoin="round"/>
<path d="M297 48H315" stroke="white" stroke-width="2" stroke-linecap="round" stroke-linejoin="round"/>
<path d="M310 52C310 53.0609 309.579 54.0783 308.828 54.8284C308.078 55.5786 307.061 56 306 56C304.939 56 303.922 55.5786 303.172 54.8284C302.421 54.0783 302 53.0609 302 52" stroke="white" stroke-width="2" stroke-linecap="round" stroke-linejoin="round"/>
</g>
<g clip-path="url(#clip1_176_510)">
<mask id="mask0_176_510" style="mask-type:luminance" maskUnits="userSpaceOnUse" x="-127" y="120" width="612" height="92">
<path d="M484.138 120H-126.207V212H484.138V120Z" fill="white"/>
</mask>
<g mask="url(#mask0_176_510)">
<path d="M-120 211V186.25C-67.681 186.25 -22.8362 130 29.4828 130C81.8017 130 126.647 197.5 178.966 197.5C231.284 197.5 276.129 141.25 328.448 141.25C380.767 141.25 425.612 175 477.931 175C477.931 175 477.931 175 477.931 211" fill="url(#paint0_linear_176_510)"/>
</g>
<mask id="mask1_176_510" style="mask-type:luminance" maskUnits="userSpaceOnUse" x="-127" y="120" width="612" height="92">
<path d="M484.138 120H-126.207V212H484.138V120Z" fill="white"/>
</mask>
<g mask="url(#mask1_176_510)">
<path d="M-120 186.25C-67.681 186.25 -22.8362 130 29.4828 130C81.8017 130 126.647 197.5 178.966 197.5C231.284 197.5 276.129 141.25 328.448 141.25C380.767 141.25 425.612 175 477.931 175" stroke="#03C9D7" stroke-width="2"/>
</g>
</g>
<defs>
<linearGradient id="paint0_linear_176_510" x1="-120" y1="130" x2="-120" y2="211" gradientUnits="userSpaceOnUse">
<stop stop-color="#03C9D7" stop-opacity="0.4225"/>
<stop offset="1" stop-color="#81E4EB" stop-opacity="0.25"/>
</linearGradient>
<clipPath id="clip0_176_510">
<rect width="24" height="24" fill="white" transform="translate(294 42)"/>
</clipPath>
<clipPath id="clip1_176_510">
<rect width="360" height="90" fill="white" transform="translate(0 121)"/>
</clipPath>
</defs>
</svg>
